<svg width="1440" height="1440" viewBox="0 0 1440 1440" fill="none" xmlns="http://www.w3.org/2000/svg">
<path d="M528.133 248.933C513.6 311.2 389.467 859.333 389.867 859.733C390.133 860 436.533 870.667 492.933 883.467C549.2 896.267 596.267 907.067 597.333 907.467C598.533 907.867 593.6 910.4 586 913.2C567.333 920.267 551.867 928.267 507.333 954C486.133 966.267 468.533 976.4 468.4 976.533C468.133 976.667 513.2 1054.93 524.8 1074.4C568 1147.07 643.467 1196.13 728 1206.53C744.8 1208.67 782.933 1208.27 800.133 1205.87C828 1202 858.267 1192.8 882 1181.07C887.867 1178.13 911.067 1165.2 933.6 1152.13C963.067 1135.33 974.4 1128.13 973.867 1126.8C972.533 1122.93 916.667 1027.07 910.533 1017.87C902 1005.2 890.267 990.667 879.2 978.933C874.133 973.733 870.133 969.333 870.267 969.333C870.267 969.333 900.8 976.267 938 984.667C975.2 993.2 1005.87 999.867 1006.27 999.6C1006.53 999.333 1016.67 955.6 1028.67 902.533C1048.93 813.867 1050.67 804.933 1050.67 793.2C1050.67 740.533 1024.27 698.133 976.667 674.267C962.133 667.067 949.733 663.067 916 654.533C879.6 645.467 871.333 641.867 859.467 629.867C843.867 614.267 835.867 596 835.733 575.867C835.6 565.467 838.267 552.4 862.667 444.933C877.6 379.2 889.6 325.2 889.2 324.8C888.933 324.533 808.933 306.133 711.333 284C613.867 261.867 533.067 243.467 531.867 243.2C530.133 242.667 529.333 244 528.133 248.933ZM704.667 337.333C770 352.133 823.867 364.667 824.4 365.333C825.333 366.133 815.6 412.933 814.133 414.267C813.467 414.933 560.8 357.333 559.867 356.267C559.067 355.467 568 313.867 569.867 308.4C570.4 307.2 572.4 307.333 578.267 308.667C582.533 309.6 639.467 322.533 704.667 337.333ZM675.333 438.667C744.267 454.267 801.067 467.467 801.467 467.867C802.267 468.533 792.267 515.733 791.067 517.2C790.8 517.6 773.867 514 753.333 509.333C730.533 504.133 715.467 501.333 714.8 502.133C713.733 503.333 702.267 552.133 702.933 552.8C703.2 552.933 719.867 556.8 740 561.333C760.133 565.867 778 570.533 779.733 571.467C782.133 573.067 782.667 574.533 782.667 580.533C782.667 590 785.6 605.333 789.867 617.333L793.2 626.933L789.6 626C781.6 624 692.933 604 692.133 604C690.933 604 679.333 654.4 680.267 655.333C680.533 655.733 714.133 663.6 754.8 672.8C795.467 682 828.933 689.867 829.2 690.133C829.467 690.4 826.4 694.133 822.4 698.4C804.933 717.333 793.2 742.133 787.2 772.8C786 779.333 784.533 785.067 784.133 785.6C783.333 786.533 632.533 752.933 631.2 751.733C630.933 751.467 631.467 747.067 632.267 742C634.267 729.067 632.8 703.2 629.467 690C626 677.067 616.667 657.067 608.533 645.733C587.867 616.8 555.333 597.467 515.333 590.533C510.267 589.733 506.667 588.4 506.667 587.467C506.667 586.133 543.2 424.533 546.133 412.667C546.533 410.8 547.733 409.467 548.533 409.733C549.333 410 606.4 423.067 675.333 438.667ZM512.8 644.667C548.4 653.6 570.267 673.867 578.133 705.2C580.133 713.333 580.533 737.333 578.533 739.2C577.867 740 478.667 717.867 477.6 716.667C477.2 716.4 480.8 699.333 485.467 678.667C495.2 635.6 492.133 639.467 512.8 644.667ZM935.467 714.8C972.933 726.267 997.333 755.733 997.333 789.6C997.333 799.333 991.733 829.867 989.467 832.4C988.8 833.067 880.533 809.333 839.067 799.333L836.267 798.667L838.8 787.067C845.067 758.133 850.267 746.933 863.333 734C884.267 713.2 908.8 706.667 935.467 714.8ZM733.333 830.667C866.4 860.933 975.733 886 976.267 886.533C976.8 886.933 974.667 898.4 971.733 911.733C966.667 934 965.867 936.133 963.6 935.467C962.133 935.067 846.933 908.933 707.467 877.2C568 845.6 453.867 819.6 453.733 819.467C453.467 819.333 463.733 773.467 464.667 771.067C464.933 770 468.933 770.533 478.267 772.667C485.467 774.4 600.267 800.533 733.333 830.667ZM710.267 954C760 961.067 802.133 982 836.667 1016.53C855.6 1035.73 862.8 1045.47 882.667 1080C890.933 1094.27 897.867 1106.4 898.133 1106.93C898.8 1107.87 874.267 1122.13 857.867 1130.4C835.467 1141.73 808.267 1149.2 780 1152.13C742.267 1155.87 697.467 1146.93 660.267 1128.13C630.667 1113.2 598.4 1084.27 579.067 1055.33C573.067 1046.53 545.333 998.8 545.333 997.467C545.333 996 585.867 973.733 597.333 968.933C612.133 962.667 633.6 956.8 648.667 954.667C655.333 953.867 661.6 952.933 662.667 952.667C668.667 951.467 698.533 952.267 710.267 954Z" fill="#8B7323"/>
</svg>
