<svg width="1440" height="1440" viewBox="0 0 1440 1440" fill="none" xmlns="http://www.w3.org/2000/svg">
<path d="M817.333 240.8C790.667 243.2 779.067 244.8 770 247.333C735.467 257.2 711.333 281.467 702.667 315.2C698.4 331.733 696.8 361.733 698.4 393.333C699.467 417.067 700.133 422 703.067 430.4C708.133 445.2 714.133 454.133 727.333 467.2L739.333 479.2L739.6 489.2C740 497.6 739.733 498.8 738.533 496C727.867 472 724.8 467.333 712.133 454.533C692 434.667 681.867 430.4 638.667 424.667C615.067 421.467 571.867 420.8 505.333 422.533C430 424.533 412.8 425.733 400.667 429.467C371.333 438.4 346.267 460.8 335.333 487.733C328 505.6 327.733 509.333 327.067 575.6L326.4 637.067L315.867 645.333C286.933 667.733 270.667 702.933 272.4 739.333C273.2 754.933 277.333 774.267 299.733 865.333C314.267 923.867 319.2 935.067 341.733 958C349.733 966.133 354.533 972.133 354.267 973.333C353.867 974.4 352 980.667 350 987.333C346.8 997.6 346.267 1001.73 346.133 1016C346.133 1035.07 348 1044.27 355.333 1059.73L360 1069.47L356.8 1075.73C350.4 1088.4 347.733 1099.73 347.067 1117.33C346.133 1137.6 347.733 1145.73 354.933 1160.27C364.4 1179.2 381.2 1193.2 402 1199.6C409.467 1201.87 416.667 1202 508 1202C597.067 1202 606.8 1201.73 614.533 1199.6C638.4 1193.07 658 1174.53 664.533 1152.27C669.067 1136.8 668.4 1101.33 663.2 1080.8C660.933 1071.87 661.067 1071.47 664 1056.13C667.333 1040 668.267 1014.8 666.4 1000L665.333 992.667L671.2 988.933C683.467 981.2 692.8 968.267 698 952C700.133 945.2 700.4 933.867 700.667 802.8L700.933 660.933L710.267 652.133C724 639.333 727.333 634.267 738.4 610.667C739.6 608.133 739.867 624.667 739.6 684C739.333 767.467 739.2 766.667 746.933 782.4C751.467 791.6 762.267 803.2 770 807.333C774.267 809.733 774.8 810.4 774.133 814C773.733 816.133 772.933 824.933 772.533 833.333C771.6 849.067 772.8 860.267 776.933 877.6C778.933 886.267 778.933 887.333 775.867 906.267C771.6 933.067 771.467 955.6 775.733 968.933C781.333 986.933 795.333 1003.73 811.333 1011.73C826.933 1019.47 823.067 1019.2 927.333 1019.73C1035.2 1020.13 1033.87 1020.27 1053.2 1010.53C1071.87 1001.2 1086.93 981.6 1092.13 960C1094.67 949.733 1094.27 926.667 1091.6 916C1090.27 911.2 1087.47 902.8 1085.07 897.2L1080.93 886.933L1085.73 875.733C1092 861.067 1095.2 843.067 1094.13 828.133C1093.33 817.2 1089.47 799.2 1086.4 792.667C1085.07 789.6 1085.6 788.667 1096.27 778.4C1108.93 765.867 1119.33 750.933 1125.47 736.133C1131.6 721.333 1162.67 596.667 1166.53 571.067C1170.8 543.333 1166 517.6 1152.27 494C1147.87 486.667 1130.13 467.733 1118.27 457.867L1113.33 453.733L1113.2 423.2C1113.2 373.2 1111.07 324.267 1108.8 316C1100.27 285.467 1075.07 259.067 1044.27 248.8C1033.07 244.933 1026 244 982.4 240C939.867 236.133 866.267 236.4 817.333 240.8ZM977.333 285.333C1012.93 288 1027.87 290.267 1036.8 294.667C1046.8 299.6 1057.47 310.533 1062.4 320.933L1066 328.667L1066.4 383.6L1066.8 438.667H1053.47C1046.27 438.667 1035.6 439.6 1029.87 440.667C1024.13 441.733 1019.33 442.4 1018.93 442.133C1018.67 441.867 1019.33 439.867 1020.53 437.6C1024.53 429.733 1028.13 412.533 1028.93 397.2L1029.73 381.6L1037.47 382.267C1044.13 382.933 1046 382.533 1051.07 379.467C1057.6 375.733 1062.67 367.467 1062.67 360.933C1062.67 347.733 1044.13 329.867 1024.8 324.667C1013.47 321.6 998.933 322.267 993.733 326.133C991.733 327.733 988.8 330.933 987.333 333.467C984.933 337.6 984.533 341.2 983.867 373.333C983.2 405.467 982.933 409.333 980.267 416C974.4 430.933 962.667 442.133 947.2 447.867C937.867 451.467 924.133 452.8 881.733 454.8C833.333 457.067 789.733 453.333 773.6 445.733C758.667 438.667 747.333 423.467 744.133 406.133C742.267 396 742.267 347.467 744.133 336C746 324.267 750.533 314.8 758.133 306.533C765.733 298.533 773.2 294 783.867 290.667C804.933 284 918.4 280.933 977.333 285.333ZM624 468.533C659.467 471.867 668.267 474.8 680.933 487.467C695.2 501.733 697.867 513.2 697.067 558.267C696.533 586.8 696.133 590.8 693.467 598C688 612.933 677.333 624.133 662.933 629.733C646.667 636.133 580.533 640.4 544 637.467C517.733 635.2 498.133 632.267 489.6 629.067C474.667 623.467 460.667 605.6 457.333 588.133C456.667 584.267 456 568 456 552.133C456 523.733 455.867 523.067 452.533 516.4C445.2 501.467 429.467 500.267 404.267 512.8C387.867 520.8 381.333 528.4 381.333 539.333C381.333 545.733 385.6 553.733 390.933 557.6C394.267 560 397.067 560.667 402.933 560.667H410.667V572.8C410.667 589.067 413.867 606.8 418.667 617.2L422.667 625.6L419.467 624.8C411.867 622.933 397.067 621.333 385.733 621.333H373.333V569.6C373.333 525.867 373.733 516.667 375.467 510.533C381.333 490.933 397.6 476 417.333 472.133C425.067 470.667 448.267 468.667 478.667 466.667C506.667 464.933 596.8 466.133 624 468.533ZM1072.8 486.8C1104 496.4 1124.27 524.933 1122.4 556.667C1121.87 564.133 1116.8 587.467 1105.47 634C1096.53 670.667 1088 704.533 1086.53 709.333C1082.4 722.133 1075.47 733.733 1066 743.733C1056.13 754.267 1044.8 761.333 1030 766.267L1019.33 769.867L946.667 770.667C874.8 771.333 874 771.333 868.4 774.267C860 778.8 856.667 784.4 856.667 794.133C856.667 800.8 857.333 802.933 860.267 806.933C867.6 816.667 864.533 816.267 950.4 815.6C1015.47 815.067 1028.53 814.667 1035.33 812.8C1039.73 811.733 1043.73 810.667 1044.13 810.667C1046.13 810.667 1048.67 824.267 1048.53 834.667C1048.27 847.333 1044.4 860.4 1040 862.667C1038.53 863.467 1020.67 864 995.2 864C955.2 864 952.533 864.133 947.2 866.667C940.667 869.867 937.333 874.4 935.867 882C933.733 893.333 940.667 904.8 951.333 907.867C954.667 908.8 972.4 909.333 998.933 909.333C1038 909.333 1041.2 909.467 1041.87 911.6C1044.13 919.333 1046.8 933.733 1047.6 942C1048.27 949.867 1047.87 952.267 1045.6 956.667C1042.53 962.8 1037.33 968 1030.67 971.467C1026.27 973.867 1021.2 974 934 974H842L834.4 970.933C825.6 967.333 819.2 960.8 817.867 953.867C817.067 949.733 819.067 920 820.667 912.533C821.2 910.267 822.667 909.467 827.467 908.8C840 907.067 848.267 898.4 848.267 886.8C848.267 873.467 838.8 864 825.333 864C820.933 864 819.867 863.467 819.2 860.933C817.867 855.467 820.8 818.533 822.667 817.333C823.6 816.8 826.533 815.867 829.333 815.467C835.067 814.533 842 810.133 845.733 805.067C849.467 800 849.333 788.533 845.467 782.267C840.533 774.267 833.2 771.733 812.533 770.8C796.133 770 794.533 769.733 791.2 766.667C783.733 759.733 784 765.467 784 625.867V496.933L797.067 497.867C838.8 500.8 852.667 501.2 878.533 500C904.533 498.667 943.2 495.467 950.933 493.867L954.4 493.2L949.333 503.6C946.533 509.333 943.333 517.467 942.267 521.733C941.067 526.133 940 529.733 939.733 530C939.467 530.133 929.2 533.467 916.667 537.2C904.267 541.067 888.4 546.8 881.467 550.133C845.2 567.2 819.6 592.533 800.8 629.467C790.4 650 789.067 656.133 793.467 664.933C797.6 673.067 804.533 677.333 814.133 677.333C823.467 677.333 830 672.533 835.867 661.2C855.067 624.667 871.067 606.533 896.133 592.933C906.533 587.2 925.6 580.4 934.4 579.2L940.8 578.4L943.067 586.133C947.067 600.533 969.733 635.2 978.4 640.267C983.333 643.2 994.667 643.467 1000 640.667C1005.73 637.733 1010.93 630.133 1011.6 623.467C1012.53 616.133 1009.6 609.6 998.933 594.133C988.8 579.467 985.2 570.4 984.4 556.667C983.467 543.333 985.467 533.333 991.333 521.6C1006 492.533 1041.6 477.2 1072.8 486.8ZM404 668.667C442.933 678.933 465.733 720.267 452.933 756.933C449.867 766 447.733 769.733 437.333 784.267C431.2 792.933 430.267 803.733 434.933 810.667C441.6 820.533 454.4 824.4 463.733 819.467C474.933 813.6 490.133 790.933 496.8 770L499.733 760.667L504.933 761.067C512.533 761.733 532.8 768.8 542.667 774.267C569.2 788.933 589.733 810.8 601.6 837.067C607.067 849.067 610 852.933 616 856C622.8 859.467 631.067 859.333 637.2 855.867C644.533 851.733 647.2 847.2 647.733 837.867C648.267 830.533 647.733 828.533 643.067 818.533C617.067 763.333 573.6 729.067 514.133 716.933L499.733 714L497.2 704C495.733 698.533 492.533 690 490 684.933C485.733 676.267 485.6 675.733 488.4 676.533C516.267 683.467 584.267 685.333 640.667 680.667C645.867 680.133 651.333 679.6 653.067 679.2L656 678.667L655.733 809.733C655.333 932.4 655.2 941.067 652.933 944.4C648.267 951.6 645.067 952.667 624 953.467C602.133 954.267 598.133 955.6 592.667 963.6C588.133 970.4 588 981.6 592.4 988.133C596.133 993.867 605.467 998.667 612.8 998.667C621.467 998.667 621.867 999.867 620.933 1022.4C620.533 1033.2 619.733 1043.07 619.333 1044.27C618.667 1046 616.933 1046.67 612.8 1046.67C605.733 1046.67 597.6 1051.33 594.533 1057.33C591.467 1062.93 591.2 1074.53 594 1080C596.933 1085.6 602.933 1089.33 611.867 1090.93C621.2 1092.67 620.8 1091.6 622.133 1117.33C622.933 1132.4 622.8 1134.67 620.4 1140.13C617.067 1147.6 611.067 1152.4 601.467 1155.2C595.067 1157.07 583.067 1157.33 508 1157.33C414.8 1157.33 414.8 1157.33 404 1150.13C391.733 1142 387.867 1121.07 395.2 1102C397.2 1096.93 399.467 1092.27 400.4 1091.73C401.333 1091.2 420.933 1090.67 444 1090.67C484.933 1090.67 486.133 1090.53 491.2 1087.6C499.467 1082.93 502 1078.53 502 1068.67C502 1058.53 499.333 1054.13 490.667 1049.6C484.933 1046.8 483.733 1046.67 442.4 1046.67H400.133L398 1043.6C394.667 1039.07 391.733 1027.07 391.6 1018.13C391.333 1009.2 394.4 993.333 396.133 993.333C396.8 993.333 403.2 994.4 410.4 995.6C421.6 997.6 432.8 998 494 998H564.667L569.867 994.8C581.067 987.867 583.2 971.2 574.267 961.6C567.067 953.867 569.467 954 492 953.333L420.667 952.667L410 948.933C404.133 946.8 396.133 943.333 392.4 941.2C376.667 932.133 362 914.667 355.2 896.533C353.333 891.467 345.467 861.2 337.733 829.333C315.467 736.667 315.2 735.333 319.333 719.333C322.8 706 327.733 697.333 337.867 687.2C347.467 677.6 359.067 670.8 370.133 668.133C378.267 666.267 396 666.533 404 668.667Z" fill="#8B7323"/>
</svg>
