<svg width="1442" height="1442" viewBox="0 0 1442 1442" fill="none" xmlns="http://www.w3.org/2000/svg">
<path d="M842.667 245.467C819.333 248.133 802.267 253.467 779.6 264.933C744.933 282.667 718.667 308.933 700.933 343.6C687.067 370.8 681.333 395.333 681.333 427.467C681.333 469.067 685.467 481.333 734.533 585.6C743.467 604.533 750.667 621.333 750.667 622.8C750.667 624.4 748 630.533 744.533 636.267C741.2 642 734.667 654.4 729.867 663.867C720.667 682.267 719.2 689.333 723.333 697.333C727.733 705.733 738.667 710.533 747.867 708C756.533 705.733 759.733 701.867 768.133 684.667C780.267 659.067 792.4 642.133 812.533 621.867C825.467 608.933 834 601.867 845.333 594.267C885.6 567.733 931.467 554.4 976 556.4C1069.2 560.8 1150 621.2 1178.53 708C1186.93 733.6 1188.53 744.267 1188.53 777.333C1188.67 803.333 1188.27 809.333 1185.73 822.133C1177.33 863.2 1159.6 897.867 1132 927.067C1119.07 940.8 1098 958.533 1087.07 964.933L1080.67 968.667L1021.07 969.333C963.333 970 961.467 970.133 957.733 972.8C951.467 977.467 948 983.733 948 990.4C948 998.667 952.4 1006 959.333 1009.33C964.667 1011.87 967.6 1012 1027.47 1012C1065.07 1012 1091.87 1011.47 1094.8 1010.67C1100.93 1008.93 1117.73 998.8 1130.8 989.067C1178.8 952.933 1213.87 898.533 1228 838.133C1243.87 771.333 1231.73 697.467 1195.6 639.067C1191.47 632.4 1188 626 1188 624.933C1188 624 1193.47 611.467 1200.13 597.2C1253.07 484.267 1255.6 477.467 1258.67 442.4C1266.67 351.333 1207.07 270.133 1116 247.6C1104.93 244.933 1101.6 244.8 978.667 244.533C909.333 244.4 848.133 244.8 842.667 245.467ZM1098.67 289.333C1118.67 292.533 1142.53 303.067 1159.47 316C1169.2 323.6 1185.07 340.533 1192 350.667C1206.4 372 1213.33 393.2 1214.27 420C1215.6 453.867 1212.4 464.533 1181.2 532.267C1167.87 561.067 1156.53 585.2 1155.87 585.867C1154.8 587.067 1149.73 583.333 1137.47 572.4L1131.6 567.2L1152 523.333C1175.73 471.867 1179.6 462.8 1182.13 450.933C1184.93 437.6 1184.53 413.333 1181.33 400.533C1173.6 369.333 1150.93 342.533 1120.8 328.667C1103.73 320.8 1096.67 319.467 1070 319.333C1046.93 319.333 1045.87 319.467 1041.6 322.4C1035.6 326.667 1032.8 332.667 1032.93 340.933C1032.93 349.733 1036.93 356.267 1044.53 359.867C1048.93 362.133 1052.8 362.667 1062.8 362.667C1082.53 362.8 1092.53 364.667 1104.8 370.667C1131.87 383.867 1145.73 414.667 1138.13 444C1136.67 449.333 1096.27 539.467 1094 542.4C1093.73 542.667 1090.53 541.333 1086.93 539.467C1074.8 533.333 1053.73 525.467 1038.4 521.467C978 505.333 915.6 510.4 859.733 535.6C852.4 538.933 845.867 541.067 845.333 540.533C844.667 539.867 834.533 517.467 822.667 490.667C802.4 444.933 801.067 441.333 800.4 432C798.667 408.133 809.733 386.133 829.867 373.067C845.2 363.2 842.133 363.467 931.333 362.667C1020 361.867 1016.27 362.267 1022.93 353.067C1025.33 349.6 1026 346.933 1026 340.4C1026 331.467 1023.87 327.333 1016.8 322.133C1013.2 319.333 1011.87 319.333 929.6 319.333C847.6 319.467 845.867 319.467 835.467 322.4C804.667 331.067 780.533 350.8 766.667 379.067C758.8 394.933 755.867 408.133 755.733 426.667C755.733 452 758.133 459.333 790.4 528.533L807.733 565.6L796.533 575.467C790.267 580.933 784.8 585.333 784.267 585.333C783.733 585.333 778.267 574.267 772.133 560.933C741.6 495.067 733.067 475.333 729.733 463.2C726.4 451.2 726 448 726 427.333C726.133 408.133 726.533 403.067 729.067 393.733C735.867 368.533 746.933 348.933 764.533 330.8C781.333 313.6 799.6 302 821.467 294.8C841.467 288.267 841.067 288.267 969.333 288.133C1045.87 288 1093.2 288.533 1098.67 289.333Z" fill="#8B7323"/>
<path d="M386 543.467C356.8 547.733 339.6 554.133 314.667 570.267C290 586.4 260.533 613.733 243.733 636.133C216.667 672.4 197.467 717.2 187.467 767.2C183.067 789.067 182.667 792.8 182.667 814.8C182.667 835.333 183.2 840.933 186.133 854.933C194.533 894.667 206.4 919.6 227.2 941.067C243.867 958.4 254.8 964.4 338 1002.27C354.933 1009.87 372.933 1017.6 378 1019.33C406.933 1029.07 445.867 1026.4 475.467 1012.8C488 1006.93 492.667 1000.67 492.667 989.2C492.667 971.067 476.267 964.533 454 973.733C416.667 989.333 376.133 979.733 353.867 950.267C340.4 932.267 335.067 917.333 330 883.733C326 856.667 326 856.667 321.733 850.8C315.467 842.667 305.2 840.533 295.2 845.467C281.467 852.133 279.867 866.667 288.533 907.067C291.333 920.133 293.333 931.067 292.933 931.467C291.867 932.533 279.067 925.733 270 919.333C260.4 912.533 252.4 904.133 245.867 893.867C232.4 872.933 225.733 838.533 228.133 803.733C233.867 721.6 268.933 658 334.4 611.067C369.467 586 403.2 581.2 439.733 596.267L449.467 600.267L434.133 608C364.267 642.933 319.6 699.733 294.667 784.8C288.933 804.267 288.133 813.733 291.333 819.867C298.133 833.2 316.8 835.733 326.533 824.667C328.933 822 331.467 816.8 332.667 812.267C338.267 791.333 347.733 765.067 354.667 750.933C372.267 715.333 398.533 682.667 425.867 662.267C438.667 652.8 462.133 641.2 476.667 637.067C491.867 632.8 514.4 632.8 526.8 637.067C544.267 643.067 557.467 653.067 568.8 668.8C576.8 680 580.267 688 587.067 711.6C590.267 722.667 593.867 733.333 595.2 735.333C603.2 747.467 621.867 746.933 631.2 734.267C636.933 726.4 633.067 697.733 622.8 673.2C613.333 650.267 596.667 629.2 576.667 614.267C565.333 605.733 523.467 584.533 481.333 566C452.267 553.067 440.667 548.8 427.6 546.133C417.067 543.867 393.2 542.4 386 543.467Z" fill="#8B7323"/>
<path d="M950 653.333C933.467 656.133 925.2 658.8 911.067 665.733C888.933 676.533 870 695.333 857.6 718.533C852.8 727.467 852 730.133 852 737.067C852 744.267 852.533 745.733 856 749.867C861.067 755.6 870.267 759.333 876.8 758.267C884.133 757.067 889.867 751.733 896 740.4C907.333 719.6 928 703.6 950.667 697.867C962.533 694.933 984.133 695.867 995.867 700C1007.07 704 1022.27 714.267 1030.67 723.733C1038.27 732.133 1046.8 748.533 1049.47 760C1055.33 784.133 1047.47 813.6 1030.13 832.933C1016.8 847.733 997.467 857.2 974.8 860C961.333 861.733 955.733 864.667 951.867 872.4C946.8 882.267 949.733 893.6 959.2 900.533C962.4 902.933 964.8 903.333 977.067 903.333C994.133 903.333 1004.67 900.8 1022.27 892.667C1037.47 885.467 1044.8 880.533 1056.53 869.467C1072.4 854.133 1083.33 836.133 1090.27 813.733C1093.6 802.8 1093.87 800.4 1093.87 776.667L1094 751.333L1089.47 738.133C1072.27 688.4 1027.47 655.467 972 651.6C967.067 651.333 957.6 652 950 653.333Z" fill="#8B7323"/>
<path d="M696.667 715.467C657.467 721.333 624.133 739.467 584.267 776.533L569.067 790.667L560.933 786.133C479.6 741.2 484.133 743.333 471.333 743.333C461.733 743.333 459.867 743.867 452 748C426.133 761.867 410.8 790.4 412.267 821.733C413.333 843.067 421.6 854.133 445.6 866.267C458.4 872.8 495.467 893.067 504.8 898.8L508.933 901.333L505.733 912.933C498.267 940.933 496.667 953.333 496.8 986C496.8 1012.53 497.2 1018.4 499.733 1030.13C508.8 1071.87 525.733 1102 551.733 1122.93C564.8 1133.2 572.933 1137.73 602 1150.4C613.733 1155.47 636.533 1166 652.667 1173.6C668.8 1181.33 685.067 1188.67 688.667 1189.87C715.6 1198.53 751.067 1198 777.733 1188.4C859.2 1159.2 927.333 1071.33 944.667 973.333C953.6 923.067 947.6 868.4 929.2 832.667C912.8 800.533 891.6 781.867 851.733 764C840.533 759.067 820.8 750.133 808 744C757.2 720.133 744.533 716.133 717.333 715.333C708.133 715.067 698.933 715.2 696.667 715.467ZM739.333 762.4C743.733 763.867 750.267 766.533 753.867 768L760.4 770.933L744.533 779.2C693.333 805.733 655.467 845.6 628 902C613.6 931.467 605.067 956.667 599.867 984.533C596.4 1003.6 595.067 1037.47 597.2 1056C598.667 1068.27 604.267 1096.93 606.267 1102.27C606.933 1103.87 606.267 1103.87 601.867 1102C586 1095.47 568.133 1080.67 558.8 1066.13C536.267 1031.6 534 964.533 553.467 906.133C566 868.4 585.333 838.667 618.133 806.533C647.6 778 669.6 764.8 696.267 760.133C707.867 758 730.133 759.2 739.333 762.4ZM507.333 807.467C525.6 817.467 541.2 826 541.733 826.667C542.8 827.6 527.6 856.667 525.333 858C524.8 858.4 514.8 853.467 503.2 847.067C491.467 840.667 476.267 832.4 469.333 828.667C454.533 820.933 454.133 819.867 458.667 805.867C462 796 466.933 789.333 471.067 789.333C472.667 789.333 488.933 797.467 507.333 807.467ZM841.333 809.067C863.467 816.933 878.667 830.8 890 853.333C903.2 879.867 908.267 917.067 903.333 951.333C892.133 1029.2 855.6 1089.73 795.333 1130C771.067 1146.27 754.667 1152 732.133 1152C707.333 1152 690 1144.67 671.867 1126.67C662.133 1117.07 659.467 1113.33 654.267 1102.67C643.6 1080.67 640.533 1060.8 641.733 1022.67C642.933 982.267 650.4 952.8 668.133 918.667C678.933 897.867 691.067 881.2 709.333 862.267C739.467 830.933 762.667 815.2 789.733 807.867C802.667 804.4 830.267 805.067 841.333 809.067Z" fill="#8B7323"/>
</svg>
